<?xml version="1.0" encoding="utf-8"?>
<!-- Generator: Adobe Illustrator 16.0.0, SVG Export Plug-In . SVG Version: 6.00 Build 0)  -->
<!DOCTYPE svg PUBLIC "-//W3C//DTD SVG 1.1//EN" "http://www.w3.org/Graphics/SVG/1.1/DTD/svg11.dtd">
<svg version="1.1" id="Layer_1" xmlns="http://www.w3.org/2000/svg" xmlns:xlink="http://www.w3.org/1999/xlink" x="0px" y="0px"
	 width="612px" height="792px" viewBox="0 0 612 792" enable-background="new 0 0 612 792" xml:space="preserve">
<g>
	<path fill="#D24B27" d="M233.625,242.681c-38.222,37.705-77.99,103.12-63.868,178.201c6.482,35.871,23.028,56.291,47.947,68.502
		c4.253,1.147,38.394,14.318,42.101,16.417"/>
	<g>
		<path d="M233.625,240.181c-35.163,34.876-60.906,80.756-65.979,130.505c-4.368,42.827,3.629,93.845,43.472,117.658
			c15.006,8.969,33.281,11.636,48.688,19.956c-0.667-0.36,0.726-4.608,0-5c-5.739-3.1-12.197-5.185-18.254-7.556
			c-7.289-2.854-14.591-5.715-21.992-8.268c-17.997-6.208-32.536-22.623-40.613-39.314c-12.562-25.96-14.264-57.439-9.55-85.436
			c4.315-25.629,14.539-50.031,28.063-72.118c10.127-16.538,22.405-31.78,36.166-45.428
			C234.477,244.336,232.811,240.988,233.625,240.181L233.625,240.181z"/>
	</g>
</g>
<g>
	<path fill="#BE2026" d="M309.756,106.635c29.818,69.974-48.189,58.909-55.4,80.401c-13.848,46.43-36.595,90.399-58.906,133.521
		c-13.123,25.367-19.888,53.501-10.375,84.671c12.814,41.983,89.164,72.037,109.908,88.132"/>
	<g>
		<path d="M309.756,109.135c1.996,4.757,3.725,9.591,5.007,14.591c0.535,2.087,0.927,4.208,1.251,6.337
			c0.148,0.978,0.244,1.961,0.338,2.945c0.098,2.208,0.141,2.393,0.13,0.557c-0.032,0.816-0.091,1.63-0.179,2.442
			c-0.594,6.139-3.104,11.843-7.07,16.535c-7.624,9.021-19.701,13.199-30.463,17.069c-7.852,2.823-19.773,5.595-23.927,13.736
			c-2.637,5.169-3.74,11.659-5.621,17.166c-2.617,7.665-5.495,15.239-8.497,22.76c-5.799,14.525-12.289,28.769-19.052,42.868
			c-6.769,14.109-13.897,28.043-21.07,41.951c-6.614,12.823-12.972,25.457-16.659,39.484c-5.409,20.58-5.324,46.189,3.281,65.847
			c7.731,17.659,24.419,30.736,39.809,41.449c16.206,11.281,33.671,20.548,50.826,30.264c5.845,3.311,11.779,6.635,17.124,10.726
			c-0.78-0.597,0.828-4.366,0-5c-12.645-9.679-27.677-16.495-41.43-24.417c-17.823-10.266-35.601-21.397-50.286-35.94
			c-6.493-6.431-12.201-13.755-16.043-22.081c-6.226-13.491-7.539-29.869-5.573-44.375c1.873-13.821,6.835-27.072,13.034-39.494
			c6.948-13.923,14.293-27.646,21.211-41.588c13.881-27.972,26.688-56.544,36.26-86.304c1.998-6.212,2.885-10.576,8.407-14.235
			c4.165-2.759,9.025-4.477,13.685-6.185c10.962-4.019,22.574-7.561,31.593-15.303c9.418-8.084,11.051-19.205,10.64-30.957
			c-0.313-8.938-3.299-17.679-6.726-25.846C310.345,105.538,309.156,107.705,309.756,109.135L309.756,109.135z"/>
	</g>
</g>
<g>
	<path fill="#E71E25" d="M336.576,499.556c98.922-14.206,118.523-76.821,91.754-157.127
		c-19.299-58.219-80.601-116.732-119.346-171.076"/>
	<g>
		<path d="M336.576,502.056c37.648-5.525,77.845-20.304,94.67-57.252c14.029-30.812,8.32-68.765-1.304-99.879
			c-10.288-33.262-30.707-62.104-51.883-89.295c-22.715-29.167-47.543-56.693-69.075-86.777c0.775,1.083-0.802,3.881,0,5
			c32.418,45.293,72.612,84.914,101.327,132.875c12.116,20.236,20.494,41.996,25.345,65.063c3.986,18.961,4.976,38.3-0.399,57.084
			c-12.577,43.954-57.199,62.093-98.681,68.181C336.301,497.097,336.779,502.026,336.576,502.056L336.576,502.056z"/>
	</g>
</g>
<g>
	<path fill="#F47C20" d="M235.182,448.562c-43.505-14.413-42.677-75.109-28.927-107.979c12.875-32.996,20.112-64.136,12.719-99.203
		c20.012,3.82,15.959,55.995,32.938,68.318c10.806-12.73,19.241-27.596,19.794-43.614c0.682-16.893-23.282-36.496-26.74-12.854
		c-6.984-7.281-5.32-18.665,4.205-22.639c9.396-3.098,16.744,7.816,25.757,7.345c23.279-0.173,23.126-29.71,18.426-46.496
		c-4.315-19.414-16.276-35.472-22.472-54.266c-4.699-16.786,14.574-30.796,16.879-46.558c-6.469,25.885,5.397,47.132,20.988,62.829
		c20.206,20.842,29.412,37.393,32.319,66.438c1.945,17.277-1.533,47.177,11.815,59.862c14.098,13.689,44.617,19.046,54.566-0.068
		c3.78-7.496,4.569-19.009,2.967-26.397c22.386,42.626-38.051,76.718-23.802,119.941c8.929,24.561,19.139,40.362,9.04,66.61
		c-7.964,23.879-26.287,39.087-49.588,45.518c-3.629,0.363-8.264,1.473-11.895,1.836"/>
	<g>
		<path d="M235.182,446.062c-35.078-12.059-41.309-53.548-34.387-85.452c1.708-7.872,4.618-15.21,7.445-22.722
			c4.609-12.247,8.424-24.79,10.944-37.638c3.933-20.058,3.873-41.352-0.209-61.37c0,1.667,0,3.333,0,5
			c13.518,3.009,16.053,24.39,18.633,35.293c1.85,7.821,3.668,15.748,6.964,23.112c1.285,2.87,2.937,5.562,5.053,7.89
			c0.518,0.57,1.104,1.07,1.69,1.565c1.162,0.981,2.099-1.349,2.798-2.207c2.175-2.67,4.172-5.478,6.086-8.338
			c9.089-13.588,16.751-34.674,7.974-50.297c-3.018-5.371-9.197-11.901-15.981-10.976c-3.544,0.483-5.393,4.064-6.41,7.075
			c-0.408,1.206-0.603,2.482-0.814,3.732c0.035-0.208-2.073-2.687-2.293-3.033c-1.276-2.006-1.793-4.377-1.98-6.709
			c0.008,1.055,0.016,2.11,0.024,3.165c0.001-0.378,0.002-0.757,0.003-1.136c-0.008,0.612-0.016,1.224-0.024,1.835
			c0.828-9.551,9.442-14.394,18.092-10.803c4.316,1.792,8.001,4.685,12.537,6.009c3.827,1.117,8.478,0.164,12.073-1.314
			c12.514-5.145,12.888-22.093,12.429-33.497c-0.853-21.166-11.311-39.266-19.952-58.042c-1.174-2.551-2.251-5.143-3.28-7.755
			c-0.785-1.993-2.491-5.233-2.328-7.343c0.362-4.674,2.55-9.124,4.745-13.176c4.57-8.442,11.064-16.114,12.75-25.814
			c0.279-1.603-0.369-3.434,0-5c-4.967,21.091,0.032,42.042,13.269,59.14c7.448,9.622,16.637,17.612,23.679,27.621
			c6.353,9.029,10.75,19.124,13.437,29.81c5.426,21.575,0.835,44.699,7.728,65.863c5.957,18.292,29.782,27.58,47.548,22.814
			c17.774-4.769,19.982-27.215,16.996-42.585c0,1.667,0,3.333,0,5c4.997,9.821,5.815,17.734,3.188,27.756
			c-2.402,9.165-6.979,17.685-11.475,25.959c-8.498,15.64-17.691,31.143-17.741,49.462c-0.026,9.623,2.46,17.638,5.979,26.586
			c4.783,12.163,10.554,25.533,8.953,38.1c-3.091,24.249-19.501,44.988-41.413,54.983c-7.576,3.455-15.506,5.073-23.736,6.06
			c-0.234,0.028,0.16,4.98,0,5c23.521-2.818,44.475-14.493,56.328-35.522c10.926-19.384,11.761-40.944,4.498-61.574
			c-2.194-6.231-4.778-12.324-7.132-18.495c-2.055-5.389-3.636-11.688-3.245-16.389c0.777-9.373,4.534-18.302,8.644-26.647
			c8.263-16.782,20.317-32.912,22.047-52.084c0.879-9.755-0.426-19.409-4.896-28.193c0.623,1.224-0.271,3.602,0,5
			c2.127,10.949-1.307,23.888-11.108,30.059c-8.039,5.062-18.698,4.335-27.46,1.946c-8.994-2.453-18.111-7.723-23.082-15.798
			c-5.746-9.335-6.201-21.731-6.661-32.339c-0.958-22.039-1.976-43.416-13.161-63.109c-5.89-10.37-14.023-19.102-22.206-27.672
			c-8.447-8.846-15.154-19.343-18.638-31.113c-2.435-8.226-2.295-16.33-0.339-24.637c0-1.667,0-3.333,0-5
			c-1.903,10.95-9.818,19.583-14.566,29.344c-3.107,6.388-3.857,13.94-2.628,20.928c1.106,6.285,4.724,12.674,7.449,18.384
			c3.132,6.562,6.481,13.014,9.42,19.668c4.516,10.225,7.699,21.342,8.333,32.543c0.459,8.101-2.598,17.695-9.078,22.831
			c-3.326,2.636-7.626,3.497-11.763,3.621c-5.553,0.166-10.276-3.431-15-5.851c-8.899-4.56-19.146,0.484-19.25,11
			c-0.026,2.57-0.124,5.139,0.292,7.682c0.396,2.416,1.687,4.573,3.134,6.491c1.54,2.041,1.087-0.362,1.36-1.612
			c0.31-1.415,0.86-2.747,1.5-4.039c2.592-5.234,8.136-4.913,12.551-2.383c5.432,3.113,9.254,9.071,11.196,14.87
			c2.884,8.616-2.326,19.709-6.193,27.286c-2.591,5.076-5.872,9.787-9.335,14.3c-1.311,1.708-2.454,4.757-4.449,3.071
			c-1.005-0.849-1.85-1.879-2.655-2.913c-7.759-9.957-9.347-24.806-12.281-36.694c-2.34-9.482-5.458-25.233-16.825-27.763
			c0.195,0.043-0.109,4.466,0,5c5.734,28.118,0.977,55.348-8.248,82.12c-3.051,8.855-6.866,17.377-9.191,26.47
			c-1.94,7.588-3.02,15.383-3.479,23.194c-1.753,29.808,5.454,64.51,37.125,75.397C234.703,450.897,235.728,446.249,235.182,446.062
			L235.182,446.062z"/>
	</g>
</g>
<g>
	<path fill="#BFD730" d="M280.753,470.43c1.578-23.021,27.612-23.687,43.159-32.146c20.565-12.196,25.625-28.449,28.956-51.217
		c4.609-31.521,4.904-82.458-32.472-95.975c12.176,26.824,11.026,71.374-28.035,75.5"/>
	<g>
		<path d="M280.753,472.93c1.91-21.214,24.654-23.671,40.424-30.778c21.354-9.624,28.502-31.172,31.69-52.584
			c2.373-15.936,3.013-32.465,1.325-48.508c-1.996-18.987-9.051-38.594-26.135-48.893c-2.42-1.458-5.023-2.582-7.662-3.574
			c0.428,0.161-0.282,4.364,0,5c6.1,13.705,8.713,29.16,4.521,43.763c-4.427,15.424-16.861,24.878-32.555,26.737
			c-0.232,0.027,0.157,4.981,0,5c19.473-2.308,31.548-15.91,34.296-34.919c2.193-15.181-0.047-31.618-6.262-45.581
			c0,1.667,0,3.333,0,5c39.191,14.74,37.36,66.997,30.823,100.722c-3.786,19.533-13.946,36.239-32.94,44.087
			c-15.321,6.33-35.72,9.472-37.526,29.528C280.604,469.586,280.902,471.28,280.753,472.93L280.753,472.93z"/>
	</g>
</g>
<g opacity="0.8">
	<path fill="#4FB5E7" d="M261.555,421.114c-20.995-9.329-30.8-34.019-24.844-56.4c5.573-19.756,26.395-33.703,40.21-48.675
		c27.014-31.824,48.431-74.306,26.408-113.301c15.613,9.438,18.884,42.114,19.077,59.135c-0.831,24.027-8.411,45.277-14.367,67.661
		c-6.084,23.257-8.134,37.268-2.579,60.438c5.683,22.297,4.98,45.447-18.832,55.381c-1.879,0.619-3.758,1.239-5.638,1.858"/>
	<g>
		<path d="M261.555,418.614c-19.514-9.059-29.369-31.195-25.189-50.027c4.644-20.92,25.678-34.476,39.603-49.028
			c16.189-16.92,29.391-39.851,34.576-62.71c4.293-18.923,2.146-39.574-7.215-56.61c0,1.667,0,3.333,0,5
			c15.408,9.869,17.688,34.27,18.762,50.744c0.117,1.792,0.189,3.587,0.248,5.383c0.189,5.733,0.222-4.255-0.125,1.868
			c-0.139,2.451-0.4,4.891-0.673,7.329c-0.812,7.248-2.292,14.411-3.968,21.501c-3.354,14.184-7.906,28.054-11.361,42.213
			c-4.857,19.902-5.381,39.594-0.418,59.535c2.552,10.255,3.637,20.495-0.152,30.574c-4.174,11.101-13.944,16.798-24.65,20.326
			c-0.529,0.175,0.461,4.848,0,5c11.454-3.774,20.679-9.764,25.072-21.448c2.631-6.999,2.504-14.715,2.309-22.08
			c-0.322-12.166-4.663-23.774-5.82-35.854c-1.397-14.587,3.088-29.66,6.923-43.577c6.463-23.445,13.654-46.655,12.843-71.237
			c-0.324-9.811-1.499-19.636-3.822-29.178c-2.226-9.139-5.911-18.971-13.512-24.979c-0.533-0.401-1.084-0.775-1.655-1.12
			c0.675,0.432-0.459,4.164,0,5c6.245,11.365,9.925,24.215,8.721,37.247c-1.088,11.767-5.089,23.136-10.154,33.735
			c-5.279,11.047-12.206,21.275-19.727,30.904c-6.854,8.773-15.077,16.057-23.116,23.704c-7.723,7.347-15.147,15.212-19.885,24.866
			c-3.621,7.377-4.221,15.455-4.198,23.525c0.051,18.728,9.195,36.322,26.584,44.395
			C260.95,423.333,262.223,418.924,261.555,418.614L261.555,418.614z"/>
	</g>
</g>
<g opacity="0.8">
	<path fill="#6A79BB" d="M295.486,432.785c11.38-35.006-19.164-70.774-1.27-107.51c-15.588,20.973,0.367,40.3,13.075,57.363
		c15.699,21.078,11.238,45.467-10.586,60.161"/>
	<g>
		<path d="M295.486,435.285c4.445-14.407,2.834-30.19-0.119-44.714c-2.026-9.963-4.634-19.79-6.054-29.871
			c-1.617-11.485-0.023-22.425,4.903-32.925c0.593-1.265-0.77-3.912,0-5c-5.505,7.782-6.741,15.613-6.404,24.816
			c0.443,12.114,8.702,23.032,15.605,32.36c6.992,9.448,14.642,20.205,12.653,32.661c-1.864,11.674-9.924,21.143-19.365,27.687
			c-0.806,0.559,0.754,4.478,0,5c9.335-6.471,16.5-15.212,19.117-26.422c1.594-6.829,1.227-15.081-0.323-21.855
			c-2.789-12.18-12.023-21.335-18.704-31.462c-3.474-5.266-6.351-10.889-8.031-16.984c-2.091-7.587,1.111-14.663,5.453-20.801
			c0-1.667,0-3.333,0-5c-6.731,14.349-6.82,30.522-4.461,45.93c3.125,20.411,12.098,40.943,5.731,61.58
			C295.013,431.816,295.952,433.774,295.486,435.285L295.486,435.285z"/>
	</g>
</g>
<g>
	<path fill="#3C1C0C" d="M140.574,458.134c10.619-1.77,11.504-28.318,1.77-32.743c-15.044-7.08-17.699,14.159-13.274,23.009
		c11.504,21.239,53.097,29.203,71.681,36.283c35.398,12.39,69.912,26.549,104.425,38.938c6.195,2.655,38.053,16.814,43.363,8.85
		c5.309-7.964-9.734-28.318-15.045-33.628c-20.354-21.239-58.407-32.743-84.956-43.363c-33.628-13.274-70.796-24.778-106.194-32.743
		"/>
	<g>
		<path d="M140.574,460.634c12.017-2.702,10.353-27.937,4.736-35.376c-5.146-6.816-14.204-3.771-16.904,3.164
			c-1.942,4.987-1.669,11.662-0.98,16.911c1.126,8.584,8.559,14.836,15.33,19.362c8.684,5.805,18.708,9.565,28.53,12.938
			c8.937,3.068,18.065,5.546,26.99,8.646c14.228,4.941,28.339,10.234,42.422,15.572c24.616,9.331,49.352,18.412,73.796,28.161
			c8.065,3.216,16.551,6.372,25.242,7.258c2.711,0.276,5.844,0.246,8.09-1.492c2.1-1.623,1.842-4.884,1.848-7.235
			c0.047-17.024-14.766-32.644-27.695-42.051c-20.001-14.55-44.361-22.322-67.221-31.081
			c-36.797-14.099-73.937-26.461-112.414-35.176c0.323,0.073-0.395,4.91,0,5c44.641,10.11,87.233,25.481,129.891,41.81
			c18.094,6.926,36.415,14.433,52.02,26.129c6.023,4.515,11.15,9.826,15.567,15.896c2.361,3.244,4.464,6.671,6.315,10.229
			c0.888,1.706,1.627,3.479,2.289,5.283c0.267,0.727,1.186,5.503,1.197,2.901c0.007-0.413,0.015-0.825,0.021-1.238
			c-1.278,14.737-33.241-0.384-40.09-3.252c-11.412-4.779-23.178-8.747-34.75-13.134c-14.987-5.681-29.935-11.467-44.943-17.094
			c-12.316-4.617-24.65-9.332-37.18-13.344c-9.568-3.062-19.214-5.851-28.628-9.38c-9.511-3.564-18.961-7.931-26.83-14.451
			c-3.282-2.72-6.056-5.985-8.155-9.691c-0.801-1.414-1.17-3.107-1.496-4.682c-0.241-1.165-0.333-2.37-0.406-3.554
			c0.172,2.812,0.382-1,0.503-1.637c0.776-4.06,2.958-8.027,7.09-9.312c4.294-1.335,9.205,1.378,11.496,4.894
			c4.331,6.645,3.801,21.893-5.684,24.025C140.182,455.722,140.895,460.562,140.574,460.634L140.574,460.634z"/>
	</g>
</g>
<g>
	<path fill="#523211" d="M330.516,524.746c23.009-10.619,41.593-26.549,68.142-33.628c15.93-3.54,59.292,1.77,69.912-11.505
		c-1.771-0.885-4.425-2.654-6.195-3.54c0.886-0.885,2.655-3.54,4.425-4.425c-1.77-0.885-4.425-5.31-7.079-6.194
		c1.77-0.885,2.654-2.655,3.54-3.54c-7.08-0.885-15.045-2.654-23.01-3.54c1.771-14.159,22.124-23.894,31.858-31.858
		c8.85-6.194,21.239-23.009,4.425-26.548c0.886-18.585-15.929-1.771-23.894,1.77c-2.654-5.31-3.54-12.39-4.425-17.699
		c-1.77,0.885-2.654,3.54-3.54,4.425c0,0-3.539-2.655-4.425-2.655c1.771,2.655,1.771,7.08,2.655,9.735
		c-1.77,0-3.54-0.886-4.425-1.771c-2.655,15.93-2.655,22.124-15.93,34.514c-11.504,10.619-23.894,21.238-38.053,30.088
		c-23.894,15.045-56.637,17.699-79.646,32.744c4.425,1.77,8.85,3.539,12.389,6.194c-0.885,1.77-0.885,4.425-3.539,6.194
		c3.539,0,8.849,0.886,13.274,0c-0.886,1.771,0,6.195-0.886,7.08c2.655,0,6.195,1.77,8.85,0.885
		c-0.885,7.965-5.31,15.044-12.39,17.699c0-1.77,0-2.655,0-4.425c-1.77,0-7.079-0.885-8.849-0.885c0-1.771,0-3.54,0-5.31
		c-1.771,0.885-7.08,0-7.965,0c0.885-0.886,0.885-5.31,2.654-7.08c-1.77,0-4.425-1.77-6.194-1.77c1.77-2.655,3.54-5.31,6.194-7.08
		c-0.885,0-1.77,0-2.654,0c1.77-0.885,3.54-2.654,4.425-4.425c-6.195-1.77-3.54-4.425-0.885-8.85"/>
	<g>
		<path d="M330.516,527.246c25.229-11.812,48.805-32.892,77.608-34.758c11.382-0.737,22.799-0.461,34.171-1.449
			c8.658-0.752,20.22-1.824,26.274-8.926c0.244-0.286,0.203-4.891,0-5c-2.095-1.13-4.102-2.409-6.195-3.54c0,1.667,0,3.333,0,5
			c1.414-1.604,2.637-3.213,4.425-4.425c0.213-0.145,0.215-4.852,0-5c-2.633-1.812-4.135-4.761-7.079-6.194c0,1.667,0,3.333,0,5
			c1.469-1.003,2.404-2.197,3.54-3.54c0.274-0.324-0.034-5.005,0-5c-7.695-1.022-15.299-2.62-23.01-3.54c0,1.667,0,3.333,0,5
			c2.756-17.18,24.225-24.478,35.663-34.99c7.742-7.115,15.736-24.732,0.62-28.416c0.002,1.637,0.005,3.273,0.007,4.911
			c0.091-3.753,0.723-8.507-1.153-11.883c-2.457-4.421-9.969,0.793-12.528,2.396c-2.509,1.57-4.924,3.284-7.44,4.843
			c-0.897,0.556-1.824,1.051-2.778,1.502c-0.323,0.153-2.376-6.725-2.524-7.303c-0.519-2.019-0.856-4.086-1.209-6.138
			c-0.423-2.461,0.031-5.606-2.447-2.574c-0.863,1.057-1.075,3.25-2.507,2.214c-1.134-0.821-2.34-1.746-3.702-2.129
			c0.376,0.105-0.312,4.431,0,5c1.662,3.039,1.75,6.452,2.655,9.735c0-1.667,0-3.333,0-5c-1.836-0.277-2.938-0.666-4.425-1.771
			c0.319,0.237-0.806,4.95-0.902,5.549c-0.438,2.707-0.918,5.403-1.542,8.074c-1.27,5.436-3.813,10.153-7.313,14.47
			c-4.789,5.905-10.938,10.847-16.654,15.814c-6.827,5.932-13.949,11.51-21.391,16.65c-13.072,9.029-27.455,14.427-42.502,19.207
			c-14.867,4.724-30.065,9.104-43.323,17.581c-0.219,0.141-0.124,4.95,0,5c4.327,1.737,8.551,3.51,12.389,6.194c0-1.667,0-3.333,0-5
			c-0.989,2.44-1.444,4.421-3.539,6.194c-0.342,0.289,0.161,5.004,0,5c4.46,0.104,8.831,0.689,13.274,0c0-1.667,0-3.333,0-5
			c-0.691,2.22,0.117,5.021-0.886,7.08c-0.204,0.419,0.009,5.001,0,5c3.02,0.275,5.802,1.414,8.85,0.885c0-1.667,0-3.333,0-5
			c-1.087,7.772-4.956,14.552-12.39,17.699c0.008,0.833,0.017,1.667,0.025,2.5c0-1.475,0-2.95,0-4.425c0-0.132,0.02-2.498-0.025-2.5
			c-2.965-0.127-5.884-0.758-8.849-0.885c0.009,0.833,0.017,1.667,0.024,2.5c0-1.77,0-3.54,0-5.31c0-0.154-0.113-2.471-0.024-2.5
			c-2.563,0.841-5.341,0.171-7.965,0c0,1.667,0,3.333,0,5c1.341-2.204,1.031-4.93,2.654-7.08c0.257-0.34-0.001-5,0-5
			c-2.154-0.344-4.041-1.426-6.194-1.77c0,1.667,0,3.333,0,5c1.805-2.688,3.597-5.108,6.194-7.08c0.36-0.273-0.19-5,0-5
			c-0.885,0-1.77,0-2.654,0c0,1.667,0,3.333,0,5c1.932-1.199,3.226-2.493,4.425-4.425c0.223-0.357,0.14-4.953,0-5
			c-1.605-0.541-3.223-0.989-3.775-2.737c0.004,1.553,0.009,3.105,0.013,4.659c0.04-2.055,1.856-4.112,2.877-5.771
			c0.754-1.225-0.733-3.809,0-5c-2.723,4.423-5.774,11.606,0.885,13.85c0-1.667,0-3.333,0-5c-1.199,1.932-2.493,3.226-4.425,4.425
			c-0.362,0.225,0.192,5,0,5c0.885,0,1.77,0,2.654,0c0-1.667,0-3.333,0-5c-2.598,1.972-4.389,4.393-6.194,7.08
			c-0.242,0.36-0.01,4.998,0,5c2.154,0.344,4.041,1.426,6.194,1.77c0-1.667,0-3.333,0-5c-1.623,2.15-1.313,4.876-2.654,7.08
			c-0.242,0.397,0.057,5.004,0,5c2.624,0.171,5.401,0.841,7.965,0c-0.009-0.833-0.017-1.667-0.024-2.5c0,1.77,0,3.54,0,5.31
			c0,0.132-0.021,2.498,0.024,2.5c2.965,0.127,5.884,0.758,8.849,0.885c-0.008-0.833-0.017-1.667-0.025-2.5c0,1.475,0,2.95,0,4.425
			c0,0.173,0.145,2.449,0.025,2.5c7.434-3.147,11.303-9.927,12.39-17.699c0.071-0.512-0.129-4.978,0-5
			c-3.048,0.529-5.83-0.609-8.85-0.885c0,1.667,0,3.333,0,5c1.023-2.102,0.191-4.853,0.886-7.08c0.16-0.513-0.176-4.973,0-5
			c-4.443,0.689-8.814,0.104-13.274,0c0,1.667,0,3.333,0,5c2.095-1.773,2.55-3.754,3.539-6.194c0.202-0.499,0.341-4.762,0-5
			c-3.838-2.685-8.062-4.457-12.389-6.194c0,1.667,0,3.333,0,5c12.796-8.181,27.421-12.567,41.79-17.097
			c14.983-4.723,29.341-9.941,42.511-18.66c13.775-9.12,27.641-20.18,38.708-32.49c3.778-4.202,6.393-9.019,7.912-14.444
			c0.719-2.566,1.151-5.216,1.596-7.84c0.303-1.78,0.58-3.566,0.87-5.349c-0.159-1.742,0.304-1.947,1.389-0.613
			c1.014,0.583,2.106,0.889,3.277,0.918c-0.159-0.024,0.141-4.489,0-5c-0.905-3.283-0.993-6.696-2.655-9.735c0,1.667,0,3.333,0,5
			c1.633,0.458,3.077,1.657,4.425,2.655c-0.05-0.037,2.376-3.464,2.577-3.71c1.63-1.994,1.484,2.507,1.654,3.544
			c0.592,3.621,1.367,7.177,2.546,10.654c0.634,1.872,0.614,3.118,2.515,2.124c1.035-0.542,2.02-1.188,3.003-1.816
			c4.065-2.594,7.953-5.62,12.502-7.338c1.494-0.563,3.068-0.757,4.567-0.158c0.812,0.324,1.295,1.14,1.694,1.857
			c0.373,0.671,0.727,4.196,0.793,1.437c-0.012,0.499-0.231,4.854,0.007,4.911c2.854,0.695,5.425,1.658,7.242,4.063
			c0.969,1.282,0.521,3.61,0.934,0.546c-0.211,1.57-0.902,3.07-1.578,4.483c-2.745,5.744-7.716,9.932-12.644,13.728
			c-10.717,8.257-27.844,15.667-30.237,30.586c-0.077,0.479-0.106,4.987,0,5c7.711,0.92,15.314,2.518,23.01,3.54
			c0-1.667,0-3.333,0-5c-1.136,1.343-2.071,2.537-3.54,3.54c-0.218,0.148-0.159,4.923,0,5c2.944,1.434,4.446,4.383,7.079,6.194
			c0-1.667,0-3.333,0-5c-1.788,1.212-3.011,2.821-4.425,4.425c-0.244,0.277-0.2,4.892,0,5c2.094,1.131,4.101,2.41,6.195,3.54
			c0-1.667,0-3.333,0-5c-6.087,7.139-17.591,8.101-26.274,8.926c-11.357,1.079-22.791,0.792-34.171,1.449
			c-28.735,1.661-52.48,22.992-77.608,34.758C329.845,522.561,331.125,526.961,330.516,527.246L330.516,527.246z"/>
	</g>
</g>
<g>
	<path fill="#52200C" d="M219.878,523.988c52.739-9.734,219.396,17.699,166.656,9.734c-46.426-5.842,34.979,15.026,41.784-4.552
		c3.165-8.85,24.667-45.892,6.735-45.006c3.165-11.505-72.779-7.079-87.546-7.079c-25.316,0-74.891,0-81.219-25.664
		c-2.11,0.885-6.328,1.77-7.383,1.77c1.055-3.539,0-2.654,3.164-6.195c1.055,1.771,2.109,3.541,3.165,4.426
		c-14.767,1.77-4.219,11.504,0,19.469c-27.424,1.77-53.794-6.195-80.164-7.965c1.055,4.425,4.22,8.85,8.438,12.39
		c-2.109,0-5.273,2.655-8.438,3.54c2.109,0,4.22,2.654,6.329,3.539c-10.548,1.771-25.314,1.771-32.698,7.965
		c9.493,2.655,20.041,3.54,30.589,3.54c-3.165,2.655-6.329,6.194-10.548,7.965c2.109,0,7.383,1.77,10.548,0.885
		c-1.056,0.885-2.11,3.54-4.22,5.31c3.164-1.77,7.383-0.885,10.548-0.885c-2.11,8.85-12.657,18.584-22.15,16.814
		c3.164,8.85,42.191,0,54.849,0.885"/>
	<g>
		<path d="M219.878,526.488c13.729-2.475,27.953-2.31,41.846-1.981c17.723,0.419,35.425,1.736,53.076,3.339
			c26.341,2.393,52.663,5.455,78.825,9.354c0.928,0.138,2.224,0.109,3.095,0.492c0-1.667,0-3.333,0-5
			c-1.569,0.26-3.851-0.526-5.391-0.753c-5.516-0.812-11.074-1.688-16.66-1.787c-3.18-0.057-3.17,2.441-2.353,5.447
			c0.426,1.566,7.578,2.272,8.769,2.496c11.976,2.241,25.448,3.636,37.398,0.631c4.685-1.178,8.377-3.373,10.178-7.951
			c2.67-6.785,6.193-13.229,8.952-19.986c2.507-6.139,10.841-29.361-2.56-29.124c0,1.667,0,3.333,0,5
			c0.591-2.7,0.782-6.601-1.719-8.297c-4.25-2.88-10.798-3.105-15.707-3.597c-16.794-1.68-33.864-1.111-50.707-0.673
			c-14.376,0.374-28.706,0.752-43.084,0.026c-17.172-0.867-39.737-2.416-52.385-15.701c-1.883-1.978-3.278-4.341-4.323-6.85
			c-0.985-2.367-0.329-2.742-3.042-1.915c-1.67,0.51-3.44,0.89-5.182,1.032c0,1.667,0,3.333,0,5
			c0.411-1.511,0.576-2.933,1.483-4.231c1.064-1.523,1.249-2.682,2.472-0.649c0.692,1.15,1.442,2.15,2.374,3.111
			c0-1.667,0-3.333,0-5c-2.858,0.426-6.446,0.945-7.5,4.063c-0.488,1.443-0.129,3.47-0.115,4.953
			c0.059,5.854,4.917,10.573,7.615,15.452c0-1.667,0-3.333,0-5c-27.072,1.527-53.33-6.021-80.164-7.965c0.093,0.007-0.139,4.514,0,5
			c1.442,5.053,4.543,8.954,8.438,12.39c0-1.667,0-3.333,0-5c-3.008,0.467-5.579,2.537-8.438,3.54c-0.192,0.067-0.029,4.994,0,5
			c2.468,0.47,4.168,2.372,6.329,3.539c0-1.667,0-3.333,0-5c-10.666,1.697-23.75,1.024-32.698,7.965c-0.259,0.201-0.045,4.988,0,5
			c10.005,2.673,20.263,3.488,30.589,3.54c0-1.667,0-3.333,0-5c-3.381,2.926-6.464,6.02-10.548,7.965c-0.298,0.143,0.104,5.008,0,5
			c3.571,0.261,6.938,1.534,10.548,0.885c0-1.667,0-3.333,0-5c-1.549,1.68-2.562,3.695-4.22,5.31c-0.601,0.585,0.631,4.729,0,5
			c3.458-1.482,6.886-0.998,10.548-0.885c0-1.667,0-3.333,0-5c-2.615,9.338-11.952,18.157-22.15,16.814c0.196,0.025-0.217,4.504,0,5
			c2.859,6.535,18.048,3.895,23.288,3.478c10.413-0.828,21.092-3.175,31.561-2.593c-0.055-0.003,0.13-4.993,0-5
			c-10.073-0.561-20.398,1.599-30.407,2.495c-5.203,0.466-10.455,0.798-15.674,0.426c-2.961-0.211-7.403-0.685-8.769-3.806
			c0,1.667,0,3.333,0,5c10.199,1.343,19.535-7.477,22.15-16.814c0.13-0.466-0.002-5,0-5c-3.662-0.113-7.089-0.598-10.548,0.885
			c0,1.667,0,3.333,0,5c1.657-1.614,2.671-3.63,4.22-5.31c0.411-0.445-0.359-4.936,0-5c-3.61,0.649-6.978-0.624-10.548-0.885
			c0,1.667,0,3.333,0,5c4.084-1.945,7.167-5.039,10.548-7.965c0.349-0.302-0.179-5.001,0-5c-10.327-0.052-20.584-0.867-30.589-3.54
			c0,1.667,0,3.333,0,5c8.948-6.94,22.032-6.268,32.698-7.965c-0.032,0.005,0.268-4.855,0-5c-2.161-1.167-3.86-3.069-6.329-3.539
			c0,1.667,0,3.333,0,5c2.858-1.003,5.429-3.073,8.438-3.54c-0.037,0.006,0.289-4.745,0-5c-3.894-3.436-6.995-7.337-8.438-12.39
			c0,1.667,0,3.333,0,5c26.834,1.944,53.091,9.492,80.164,7.965c-0.053,0.003,0.228-4.588,0-5
			c-2.371-4.287-7.479-9.236-7.585-14.378c-0.004,1.553-0.008,3.105-0.013,4.658c0.518-3.654,4.539-4.294,7.598-4.749
			c-0.032,0.005,0.283-4.709,0-5c-0.94-0.969-1.644-1.976-2.374-3.111c-1.327-2.065-1.262-0.821-2.472,0.649
			c-0.975,1.186-1.094,2.8-1.483,4.231c-0.133,0.489,0.097,4.992,0,5c2.168-0.178,4.292-0.761,6.365-1.393
			c1.676-0.512,1.854,2.359,2.594,3.938c1.698,3.626,4.627,6.527,7.786,8.9c7.22,5.422,16.587,7.801,25.3,9.464
			c16.672,3.184,34.109,3.312,51.035,2.914c15.693-0.368,31.375-0.961,47.076-0.686c7.841,0.137,15.722,0.446,23.497,1.523
			c3.622,0.502,9.935,1.012,12.235,4.398c0.184,0.269,0.337,0.662,0.342,0.991c0.005-1.554,0.009-3.106,0.013-4.659
			c-0.01,0.197-0.041,0.391-0.094,0.581c-0.104,0.479,0.024,5,0,5c2.199-0.039,4.19,0.322,5.687,2.044
			c0.625,0.719,0.91,1.688,1.138,2.59c0.19,1.325,0.259,0.819,0.204-1.516c-0.034,1.035-0.213,2.065-0.386,3.085
			c-1.093,6.454-3.884,12.683-6.517,18.627c-2.184,4.931-4.728,9.728-6.702,14.747c-1.385,3.52-4.078,5.406-7.545,6.725
			c-9.249,3.518-20.483,2.55-30.104,1.536c-4.391-0.463-8.771-1.136-13.083-2.083c-0.897-0.197-5.13-0.72-5.447-1.886
			c0,1.667,0,3.333,0,5c0.373-1.723,14.877,0.785,16.013,0.956c2.39,0.358,5.972,1.605,8.408,1.202c-0.013,0.002,0.239-4.895,0-5
			c-1.336-0.588-3.347-0.531-4.77-0.74c-4.336-0.635-8.678-1.232-13.021-1.817c-14.365-1.933-28.759-3.662-43.171-5.208
			c-33.498-3.591-67.75-7.14-101.467-5.082c-4.828,0.295-9.652,0.785-14.414,1.644C219.55,521.547,220.132,526.442,219.878,526.488
			L219.878,526.488z"/>
	</g>
</g>
<g>
	<g>
		<path d="M398.523,101.17c0.038,0,0.038-5,0-5S398.485,101.17,398.523,101.17L398.523,101.17z"/>
	</g>
</g>
</svg>
